HIERARCHY
ROOT root
{
	OFFSET 0.000000 0.000000 0.000000
	CHANNELS 6 Xposition Yposition Zposition Zrotation Yrotation Xrotation
	JOINT lhip
	{
		OFFSET 0.058581 -0.082280 -0.017664
		CHANNELS 3 Zrotation Yrotation Xrotation
		JOINT lknee
		{
			OFFSET 0.043451 -0.386469 0.008037
			CHANNELS 3 Zrotation Yrotation Xrotation
			JOINT lankle
			{
				OFFSET -0.014790 -0.426874 -0.037428
				CHANNELS 3 Zrotation Yrotation Xrotation
				JOINT ltoe
				{
					OFFSET 0.041054 -0.060286 0.122042
					CHANNELS 3 Zrotation Yrotation Xrotation
					End Site
					{
						OFFSET 0.000000 0.000000 0.000000
					}
				}
			}
		}
	}
	JOINT rhip
	{
		OFFSET -0.060310 -0.090513 -0.013543
		CHANNELS 3 Zrotation Yrotation Xrotation
		JOINT rknee
		{
			OFFSET -0.043257 -0.383688 -0.004843
			CHANNELS 3 Zrotation Yrotation Xrotation
			JOINT rankle
			{
				OFFSET 0.019056 -0.420046 -0.034562
				CHANNELS 3 Zrotation Yrotation Xrotation
				JOINT rtoe
				{
					OFFSET -0.034840 -0.062106 0.130323
					CHANNELS 3 Zrotation Yrotation Xrotation
					End Site
					{
						OFFSET 0.000000 0.000000 0.000000
					}
				}
			}
		}
	}
	JOINT lowerback
	{
		OFFSET 0.004439 0.124404 -0.038385
		CHANNELS 3 Zrotation Yrotation Xrotation
		JOINT upperback
		{
			OFFSET 0.004488 0.137956 0.026820
			CHANNELS 3 Zrotation Yrotation Xrotation
			JOINT chest
			{
				OFFSET -0.002265 0.056032 0.002855
				CHANNELS 3 Zrotation Yrotation Xrotation
				JOINT lowerneck
				{
					OFFSET -0.013390 0.211636 -0.033468
					CHANNELS 3 Zrotation Yrotation Xrotation
					JOINT upperneck
					{
						OFFSET 0.010113 0.088937 0.050410
						CHANNELS 3 Zrotation Yrotation Xrotation
						End Site
						{
							OFFSET 0.000000 0.000000 0.000000
						}
					}
				}
				JOINT lclavicle
				{
					OFFSET 0.071702 0.114000 -0.018898
					CHANNELS 3 Zrotation Yrotation Xrotation
					JOINT lshoulder
					{
						OFFSET 0.122921 0.045205 -0.019046
						CHANNELS 3 Zrotation Yrotation Xrotation
						JOINT lelbow
						{
							OFFSET 0.255332 -0.015649 -0.022946
							CHANNELS 3 Zrotation Yrotation Xrotation
							JOINT lwrist
							{
								OFFSET 0.265709 0.012698 -0.007375
								CHANNELS 3 Zrotation Yrotation Xrotation
								End Site
								{
									OFFSET 0.000000 0.000000 0.000000
								}
							}
						}
					}
				}
				JOINT rclavicle
				{
					OFFSET -0.082954 0.112472 -0.023707
					CHANNELS 3 Zrotation Yrotation Xrotation
					JOINT rshoulder
					{
						OFFSET -0.113228 0.046853 -0.008472
						CHANNELS 3 Zrotation Yrotation Xrotation
						JOINT relbow
						{
							OFFSET -0.260127 -0.014369 -0.031269
							CHANNELS 3 Zrotation Yrotation Xrotation
							JOINT rwrist
							{
								OFFSET -0.269108 0.006794 -0.006027
								CHANNELS 3 Zrotation Yrotation Xrotation
								End Site
								{
									OFFSET 0.000000 0.000000 0.000000
								}
							}
						}
					}
				}
			}
		}
	}
}
MOTION
Frames: 13
Frame Time: 0.033333
0.620078 0.235651 0.994247 80.017951 1.565050 88.591473 6.623008 4.298877 7.796341 -3.842738 -4.112056 0.557390 2.037453 9.060396 -7.656363 0.000000 -0.000000 0.000000 -5.519874 -4.136278 -1.913627 1.821509 -1.690906 10.657468 5.675121 -6.072885 -5.421943 0.000000 -0.000000 0.000000 -3.150047 -0.002727 4.443039 3.346295 -3.715526 0.007552 1.591703 -4.062105 2.515124 9.839884 -10.359749 7.927911 3.610447 -13.504078 15.292153 -27.010789 5.934332 0.746139 -56.469620 -12.643639 8.353478 7.182431 -24.669429 3.920617 -3.456365 -2.220398 -5.871274 29.024671 -3.359849 -0.138059 53.086829 6.450579 11.946405 -11.907994 19.896478 -8.219611 4.997210 0.945223 -4.808208 
0.621659 0.234465 0.994357 80.238752 1.552770 88.749010 6.693130 4.379745 7.767666 -3.918105 -4.225209 0.378409 1.992467 8.957980 -7.740250 0.000000 -0.000000 0.000000 -5.516431 -4.163929 -1.883021 1.766349 -1.994935 10.531010 5.753797 -5.960272 -5.377888 0.000000 -0.000000 0.000000 -3.133542 -0.007827 5.098169 3.362322 -3.677093 -1.085621 1.703803 -3.840835 1.890747 9.130954 -10.968799 6.330896 3.680777 -14.395484 13.961508 -26.532653 5.839944 0.902228 -57.109298 -12.055349 8.717441 6.733558 -23.640057 4.947647 -3.633787 -2.262873 -5.739612 27.944695 -3.693487 -1.528492 53.832708 4.644723 11.870358 -11.349973 18.824078 -7.474233 4.996020 0.504377 -5.542741 
0.622619 0.233812 0.994677 80.420699 1.442824 88.884293 6.532145 4.386296 7.734414 -3.790747 -4.290784 0.199725 1.628801 8.825837 -7.711264 0.000000 -0.000000 0.000000 -5.633719 -4.137598 -1.947411 1.759041 -2.072563 10.438613 5.807518 -6.012084 -5.344887 0.000000 -0.000000 0.000000 -2.890691 0.048713 4.972607 3.091382 -3.509822 -1.266824 1.297338 -3.879522 1.998616 9.058604 -11.280761 4.208590 3.750010 -15.244897 12.577995 -26.327628 5.722442 0.652070 -57.114698 -11.933825 8.964301 6.268992 -22.916193 5.475916 -3.694120 -2.358130 -5.229187 28.132422 -3.850750 -1.998062 53.833148 4.378211 11.668494 -11.021217 17.302290 -7.694606 4.928719 0.646378 -5.472627 
0.622304 0.232911 0.995174 80.438068 1.359036 89.317349 6.393259 4.323015 7.222317 -3.773139 -4.205083 0.297158 1.669964 8.749016 -7.594028 0.000000 -0.000000 0.000000 -5.599236 -4.366845 -2.580281 1.686837 -1.918189 10.581136 5.761108 -6.099134 -5.265970 0.000000 -0.000000 0.000000 -2.762218 0.256237 4.949232 2.867260 -3.413420 -1.600685 1.056968 -3.977473 1.682084 8.987756 -11.341412 2.269876 4.414225 -15.519171 10.528708 -26.197250 5.643336 0.862499 -57.170619 -11.705584 8.994593 5.923854 -22.511342 6.249652 -4.012732 -2.553302 -5.143980 28.046272 -3.762643 -2.397187 54.127618 3.962817 11.446677 -10.730926 15.626213 -7.410707 5.188170 0.193240 -5.238943 
0.623033 0.233117 0.995493 80.861970 1.324753 89.322007 6.302445 4.099806 7.203134 -3.700401 -4.411903 0.264723 1.579297 8.780743 -7.687278 0.000000 -0.000000 0.000000 -5.634108 -3.857081 -2.264186 1.705680 -2.232300 10.251589 5.736557 -6.628348 -5.245543 0.000000 -0.000000 0.000000 -2.542710 0.015538 5.123741 2.624738 -3.336200 -1.770630 0.877176 -3.938649 1.657708 8.877261 -11.434850 1.040665 4.345272 -15.966902 9.973646 -26.299803 5.679182 0.662521 -57.207287 -11.600139 9.172417 5.765872 -22.330372 6.603126 -4.329044 -2.580413 -5.066481 28.172271 -3.492188 -2.362022 54.136042 3.944476 11.412809 -10.511326 14.447299 -7.551725 5.214456 0.169535 -5.031381 
0.623846 0.233440 0.995553 80.954249 1.262811 89.426760 6.160971 3.869485 7.206586 -3.661884 -4.319760 0.124440 1.520719 8.799802 -7.680116 0.000000 -0.000000 0.000000 -5.673346 -3.788062 -2.281085 1.664192 -2.195114 10.170202 5.711292 -6.810482 -5.286087 0.000000 -0.000000 0.000000 -2.358441 0.039588 4.992421 2.412409 -3.230988 -1.790021 0.686102 -3.880966 1.675417 8.733182 -11.429349 -0.687107 3.961191 -16.357493 9.698925 -26.525749 5.498972 0.613049 -57.122132 -11.410550 9.395412 5.662510 -22.216371 6.658498 -4.331143 -2.904474 -5.054148 28.158819 -2.957880 -2.062751 54.318318 3.883151 11.535513 -10.455439 13.468059 -7.547518 5.259667 -0.127719 -4.797079 
0.625212 0.234268 0.995970 81.166196 1.213963 89.532315 6.080950 4.157915 7.197086 -3.613038 -4.660098 0.055863 1.572903 8.663065 -7.614654 0.000000 -0.000000 0.000000 -5.750028 -4.014608 -2.304373 1.561955 -2.147875 10.238776 5.690247 -6.819546 -5.434870 0.000000 -0.000000 0.000000 -2.141499 -0.007587 5.220518 2.163345 -3.026852 -2.085553 0.600928 -3.506199 1.257490 8.657589 -11.742361 -1.856133 4.143697 -16.567832 8.949261 -26.789231 5.806971 0.369099 -57.112680 -10.747535 9.319886 5.335936 -22.811165 7.479404 -4.420891 -2.782826 -4.892880 28.113447 -3.249872 -2.246803 54.318065 3.110412 11.337155 -10.185728 13.387621 -6.611696 5.425167 -0.389200 -3.782241 
0.625739 0.234722 0.996116 81.443789 1.115677 89.601489 5.959709 3.882077 7.167971 -3.681798 -4.582603 -0.040066 1.525255 8.571329 -7.676756 0.000000 -0.000000 0.000000 -5.848922 -3.977887 -2.302480 1.528063 -2.246848 10.239586 5.670305 -6.995744 -5.560806 0.000000 -0.000000 0.000000 -1.941411 0.082356 5.001209 1.912217 -2.855220 -1.946878 0.276254 -3.463813 1.373395 8.470003 -11.610550 -2.698616 4.258408 -17.051769 8.499452 -26.757315 5.653339 0.377167 -57.191150 -10.854815 9.435497 5.340102 -22.918607 7.318117 -4.384960 -3.006219 -5.039980 28.325283 -2.747342 -1.851931 54.525465 3.331646 11.649756 -10.281060 12.876995 -6.309134 5.569564 -0.438238 -3.502825 
0.625846 0.235494 0.996327 81.820558 1.081965 89.573578 5.934339 3.747448 7.070035 -3.776284 -4.622443 0.123272 1.454853 8.417989 -7.643375 0.000000 -0.000000 0.000000 -5.887012 -3.785220 -2.192545 1.397926 -2.639056 10.265810 5.600653 -7.159425 -5.582524 0.000000 -0.000000 0.000000 -1.796717 0.164746 5.199635 1.747468 -2.643683 -1.993051 0.245857 -3.211418 1.169255 8.257907 -11.767128 -2.988706 4.739066 -16.851305 7.370980 -26.865755 5.472097 0.428949 -57.387999 -10.637322 9.428071 5.468176 -23.473908 7.492170 -4.663378 -2.863444 -5.022668 28.244705 -2.671953 -1.566055 55.054044 2.776082 11.447455 -10.768244 13.874654 -6.176385 5.862838 -0.449436 -3.560142 
0.626577 0.236412 0.996418 82.235495 1.041396 89.607770 5.933306 3.706514 7.016525 -3.916065 -4.757592 0.198106 1.412830 8.220643 -7.824106 0.000000 -0.000000 0.000000 -5.995273 -3.737238 -2.037896 1.432346 -2.880048 10.153593 5.488059 -7.470246 -5.595531 0.000000 -0.000000 0.000000 -1.608848 0.142440 5.030814 1.624495 -2.503525 -1.948733 0.147957 -3.259365 1.195819 7.878023 -11.357244 -3.159332 4.643149 -16.499083 6.554468 -26.964398 5.472074 0.465347 -57.510979 -10.325734 9.494082 5.458373 -24.080159 7.564872 -4.795854 -3.020271 -5.508026 27.993702 -1.930262 -0.834729 55.448291 3.054587 11.883741 -10.791617 14.396691 -5.802537 5.944298 -0.616228 -3.609802 
0.627392 0.237104 0.996366 82.484621 0.977993 89.626433 5.892698 3.683255 7.017522 -4.032388 -4.789453 0.175941 1.313283 8.168398 -8.053212 0.000000 -0.000000 0.000000 -6.116665 -3.932875 -2.001064 1.395885 -2.954166 10.236247 5.491318 -7.406205 -5.562974 0.000000 -0.000000 0.000000 -1.508148 0.397828 5.045432 1.467950 -2.280401 -2.011439 0.028759 -3.024108 1.157860 7.658338 -11.421959 -3.361979 4.983575 -16.623132 5.954760 -26.826273 5.561411 0.432441 -57.643937 -10.190366 9.576464 5.238504 -24.794721 8.005443 -4.509449 -3.003034 -5.529381 28.018695 -1.832160 -1.025488 55.576681 2.964028 11.943999 -10.534995 14.872387 -5.392925 5.733688 -0.494425 -3.455375 
0.628540 0.238117 0.996388 82.749141 0.934559 89.517069 5.820008 3.741744 7.152527 -4.031448 -5.075002 0.200314 1.265147 8.137155 -8.127274 0.000000 -0.000000 0.000000 -6.246882 -3.966162 -1.731838 1.383970 -3.015282 10.194497 5.596979 -7.475460 -5.682647 0.000000 -0.000000 0.000000 -1.416924 0.465764 5.151960 1.310304 -1.960293 -2.003875 0.039517 -2.663604 1.041225 7.406164 -11.639193 -4.165743 4.663568 -16.900753 6.144908 -26.814654 5.528103 0.280080 -57.651933 -9.951653 9.593725 4.925896 -25.218568 8.357583 -4.411039 -3.128465 -5.635636 28.098053 -1.937642 -1.270446 55.594451 2.859214 11.882711 -10.403708 15.685432 -5.043987 5.686979 -0.348058 -3.264281 
0.628760 0.239066 0.996516 82.979209 0.905686 89.471609 5.791827 3.643921 7.039204 -4.118086 -4.948203 0.449608 1.236383 8.002936 -8.238156 0.000000 -0.000000 0.000000 -6.326873 -4.151372 -1.755284 1.294760 -3.197315 10.399207 5.586268 -7.317373 -5.777933 0.000000 -0.000000 0.000000 -1.413175 0.753754 5.263229 1.247575 -1.797570 -1.987343 0.149213 -2.433166 0.883470 7.090826 -11.531964 -3.892750 4.809382 -16.452873 5.322461 -26.782944 5.336685 0.424145 -57.741802 -9.677096 9.491210 4.935160 -25.587645 8.472786 -4.344717 -3.089946 -5.649098 27.968594 -1.810395 -1.444562 55.785841 2.729719 11.836599 -10.461658 16.674698 -4.699487 5.562319 -0.341092 -3.307609 
